<svg id="Capa_1" enable-background="new 0 0 512 512" height="512" viewBox="0 0 512 512" width="512" xmlns="http://www.w3.org/2000/svg"><g><g><path clip-rule="evenodd" d="m255.986 7.611v58.284l73.184-27.675c2.1-.806 2.1-2.129 0-2.934z" fill="#fe8d94" fill-rule="evenodd"/></g><g><path clip-rule="evenodd" d="m255.986 65.895 73.184-27.675c2.1-.806 2.1-2.129 0-2.934l-20.166-7.624-53.018 20.051z" fill="#ff6d75" fill-rule="evenodd"/></g><g><path d="m255.986 116.169c-4.204 0-7.611-3.407-7.611-7.611v-100.947c0-4.204 3.408-7.611 7.611-7.611 4.204 0 7.612 3.407 7.612 7.611v100.946c-.001 4.205-3.409 7.612-7.612 7.612z" fill="#7e707d"/></g><g><path clip-rule="evenodd" d="m230.412 146.589h-36.764c-1.525 0-2.762-1.237-2.762-2.762l-.029-33.141c0-1.496-.345-2.129-1.553-2.129h-30.349c-2.618 0-4.775 2.158-4.775 4.775v196.228h203.643v-196.226c0-2.618-2.158-4.775-4.775-4.775h-30.349c-1.237 0-1.553.633-1.553 2.129l-.029 33.141c0 1.525-1.237 2.762-2.762 2.762h-36.764c-1.525 0-2.762-1.237-2.762-2.762l-.029-33.054c0-1.525-.863-2.215-2.1-2.215h-20.712-20.712c-1.208 0-2.071.69-2.071 2.215l-.029 33.054c-.003 1.523-1.24 2.76-2.764 2.76z" fill="#ffbc85" fill-rule="evenodd"/></g><g><path clip-rule="evenodd" d="m190.885 143.828-.029-33.141c0-1.496-.345-2.129-1.553-2.129h-18.382c1.208 0 1.553.633 1.553 2.129l.029 33.141c0 1.525 1.237 2.762 2.733 2.762h18.411c-1.525-.001-2.762-1.238-2.762-2.762z" fill="#f5a96c" fill-rule="evenodd"/></g><g><path clip-rule="evenodd" d="m278.827 143.828-.029-33.054c0-1.525-.863-2.215-2.1-2.215h-18.382c1.208 0 2.1.69 2.1 2.215l.029 33.054c0 1.525 1.237 2.762 2.733 2.762h18.411c-1.525-.001-2.762-1.238-2.762-2.762z" fill="#f5a96c" fill-rule="evenodd"/></g><g><path clip-rule="evenodd" d="m357.821 237.065v-123.731c0-2.618-2.158-4.775-4.775-4.775h-18.382c2.618 0 4.747 2.158 4.747 4.775v123.846c.144-.029.259-.057.403-.086s.288-.029.46-.029z" fill="#f5a96c" fill-rule="evenodd"/></g><g><path clip-rule="evenodd" d="m34.622 218.682v260.666c0 2.704 2.186 4.891 4.862 4.919h.058 76.492v-247.202-18.383c0-5.955-4.89-10.817-10.845-10.817h-59.75c-5.955 0-10.817 4.862-10.817 10.817z" fill="#fde588" fill-rule="evenodd"/></g><g><path clip-rule="evenodd" d="m99.033 237.065v247.203h104.941v-87.138c0-28.595 23.416-52.012 52.011-52.012 28.623 0 52.011 23.417 52.011 52.012v87.138h98.97v-247.203h-66.693c-1.525 0-1.956.777-1.956 2.704l-.029 41.857c0 1.927-1.582 3.481-3.481 3.481h-46.487c-1.899 0-3.481-1.553-3.481-3.481l-.029-41.771c0-1.899-1.093-2.79-2.647-2.79h-52.327c-1.553 0-2.675.892-2.675 2.79l-.029 41.771c0 1.927-1.553 3.481-3.452 3.481h-46.488c-1.927 0-3.481-1.553-3.481-3.481l-.029-41.857c0-1.927-.432-2.704-1.956-2.704z" fill="#fde588" fill-rule="evenodd"/></g><g><path clip-rule="evenodd" d="m395.967 237.065v247.203h76.981.057c2.416-.029 4.373-1.985 4.373-4.401v-261.185c0-5.955-4.862-10.817-10.816-10.817h-59.749c-5.955 0-10.845 4.862-10.845 10.817v18.383z" fill="#fde588" fill-rule="evenodd"/></g><g><path clip-rule="evenodd" d="m368.12 237.065h27.847v247.203h-27.847z" fill="#fdd76f" fill-rule="evenodd"/></g><g><path clip-rule="evenodd" d="m173.712 281.626-.029-41.857c0-1.927-.432-2.704-1.956-2.704h-17.548-5.696c1.525 0 1.956.777 1.956 2.704l.029 41.857c0 1.927 1.582 3.481 3.481 3.481h23.244c-1.928 0-3.481-1.553-3.481-3.481z" fill="#fdd76f" fill-rule="evenodd"/></g><g><path clip-rule="evenodd" d="m284.839 281.626-.029-41.771c0-1.899-1.093-2.79-2.647-2.79h-23.243c1.553 0 2.647.892 2.675 2.79l.029 41.771c0 1.927 1.553 3.481 3.452 3.481h23.244c-1.899 0-3.481-1.553-3.481-3.481z" fill="#fdd76f" fill-rule="evenodd"/></g><g><path clip-rule="evenodd" d="m116.033 484.268v-247.203-18.383c0-5.955-4.89-10.817-10.845-10.817h-30.033c5.955 0 10.816 4.862 10.816 10.817v18.383 247.203z" fill="#fdd76f" fill-rule="evenodd"/></g><g><path clip-rule="evenodd" d="m477.378 479.866v-261.184c0-5.955-4.862-10.817-10.816-10.817h-29.889c5.955 0 10.816 4.862 10.816 10.817v261.184c0 2.417-1.956 4.373-4.373 4.401h29.832.057c2.417-.028 4.373-1.984 4.373-4.401z" fill="#fdd76f" fill-rule="evenodd"/></g><g><path clip-rule="evenodd" d="m255.986 345.117c-28.595 0-52.011 23.417-52.011 52.012v87.138h52.011 52.011v-87.137c0-28.596-23.388-52.013-52.011-52.013z" fill="#ffbc85" fill-rule="evenodd"/></g><g><path clip-rule="evenodd" d="m307.997 397.13c0-28.595-23.388-52.012-52.011-52.012-28.595 0-52.097 23.417-52.011 52.012l.115 26.351c-.115-26.351 23.388-52.012 52.011-52.012 27.559 0 50.314 21.749 51.896 48.963z" fill="#f5a96c" fill-rule="evenodd"/></g><g><path clip-rule="evenodd" d="m203.975 473.911h-87.941-76.493s-.029 0-.058 0h-5.782c-6.386 0-11.593 5.236-11.593 11.593v14.902c0 6.329 5.178 11.536 11.507 11.593h.086 444.597.086c6.329-.058 11.507-5.265 11.507-11.593v-14.902c0-6.358-5.207-11.593-11.593-11.593h-5.293s-.029 0-.057 0h-76.981-87.97-52.011z" fill="#ce9875" fill-rule="evenodd"/></g><g><path clip-rule="evenodd" d="m489.892 485.505c0-6.358-5.207-11.593-11.593-11.593h-.921-4.373-.057-25.459-10.385c4.516 0 8.458 2.618 10.356 6.415.633 1.208 1.036 2.532 1.179 3.941.058.432.058.834.058 1.237v14.902c0 6.329-5.149 11.536-11.507 11.593h41.108.086c6.329-.058 11.507-5.265 11.507-11.593v-14.902z" fill="#c6865c" fill-rule="evenodd"/></g><g><path d="m443.893 272.581h-17.289c-4.204 0-7.612-3.407-7.612-7.612s3.408-7.611 7.612-7.611h17.289c4.204 0 7.611 3.407 7.611 7.611s-3.407 7.612-7.611 7.612z" fill="#f5a96c"/></g><g><path d="m82.519 272.581h-17.289c-4.204 0-7.611-3.407-7.611-7.612s3.408-7.611 7.611-7.611h17.289c4.204 0 7.611 3.407 7.611 7.611s-3.407 7.612-7.611 7.612z" fill="#f5a96c"/></g><g><path d="m83.555 325.716h-17.289c-4.204 0-7.611-3.407-7.611-7.611s3.408-7.612 7.611-7.612h17.289c4.204 0 7.611 3.407 7.611 7.612s-3.407 7.611-7.611 7.611z" fill="#f5a96c"/></g><g><path d="m444.899 325.716h-17.289c-4.204 0-7.611-3.407-7.611-7.611s3.408-7.612 7.611-7.612h17.289c4.204 0 7.611 3.407 7.611 7.612s-3.407 7.611-7.611 7.611z" fill="#f5a96c"/></g><g><path d="m307.076 215.477h-.115c-4.204 0-7.611-3.407-7.611-7.611s3.408-7.611 7.611-7.611h.115c4.204 0 7.611 3.407 7.611 7.611s-3.407 7.611-7.611 7.611z" fill="#f5a96c"/></g><g><path d="m259.236 178.884h-.115c-4.204 0-7.611-3.407-7.611-7.611s3.408-7.611 7.611-7.611h.115c4.204 0 7.612 3.407 7.612 7.611s-3.408 7.611-7.612 7.611z" fill="#f5a96c"/></g><g><path d="m202.421 199.913h-.115c-4.204 0-7.611-3.407-7.611-7.611s3.408-7.611 7.611-7.611h.115c4.204 0 7.611 3.407 7.611 7.611s-3.407 7.611-7.611 7.611z" fill="#f5a96c"/></g><g><path d="m174.805 354.972h-.115c-4.204 0-7.611-3.407-7.611-7.612s3.408-7.611 7.611-7.611h.115c4.204 0 7.611 3.407 7.611 7.611s-3.408 7.612-7.611 7.612z" fill="#fdd76f"/></g><g><path d="m431.178 427.065h-.115c-4.204 0-7.612-3.407-7.612-7.611s3.408-7.612 7.612-7.612h.115c4.204 0 7.612 3.407 7.612 7.612s-3.408 7.611-7.612 7.611z" fill="#fdd76f"/></g><g><path d="m442.052 368.292h-.115c-4.204 0-7.612-3.407-7.612-7.611s3.408-7.612 7.612-7.612h.115c4.204 0 7.611 3.407 7.611 7.612s-3.408 7.611-7.611 7.611z" fill="#fdd76f"/></g><g><path d="m78.55 371.629h-.144c-4.204 0-7.611-3.407-7.611-7.611s3.408-7.612 7.611-7.612h.144c4.204 0 7.611 3.407 7.611 7.612s-3.408 7.611-7.611 7.611z" fill="#fdd76f"/></g><g><path d="m63.792 418.493c-4.204 0-7.655-3.407-7.655-7.611s3.364-7.612 7.568-7.612h.087c4.204 0 7.611 3.407 7.611 7.612s-3.407 7.611-7.611 7.611z" fill="#fdd76f"/></g><g><path d="m158.149 439.148h-.115c-4.204 0-7.611-3.407-7.611-7.612s3.408-7.611 7.611-7.611h.115c4.204 0 7.611 3.407 7.611 7.611s-3.408 7.612-7.611 7.612z" fill="#fdd76f"/></g><g><path d="m255.065 317.171h-.115c-4.204 0-7.611-3.407-7.611-7.611s3.408-7.612 7.611-7.612h.115c4.204 0 7.612 3.407 7.612 7.612s-3.408 7.611-7.612 7.611z" fill="#fdd76f"/></g><g><path d="m335.441 354.972h-.115c-4.204 0-7.611-3.407-7.611-7.612s3.408-7.611 7.611-7.611h.115c4.204 0 7.612 3.407 7.612 7.611s-3.409 7.612-7.612 7.612z" fill="#fdd76f"/></g><g><path d="m352.097 439.148h-.115c-4.204 0-7.611-3.407-7.611-7.612s3.408-7.611 7.611-7.611h.115c4.204 0 7.612 3.407 7.612 7.611s-3.409 7.612-7.612 7.612z" fill="#fdd76f"/></g></g></svg>